<svg id="Layer_1" data-name="Layer 1" xmlns="http://www.w3.org/2000/svg" xmlns:xlink="http://www.w3.org/1999/xlink" viewBox="0 0 571.55 419.9"><defs><style>.cls-1{fill:url(#linear-gradient);}.cls-2{fill:url(#linear-gradient-2);}.cls-3{fill:#dc4343;}.cls-4{fill:#2d5489;}</style><linearGradient id="linear-gradient" x1="368.43" y1="99.47" x2="483.63" y2="270.83" gradientUnits="userSpaceOnUse"><stop offset="0" stop-color="#b74652"/><stop offset="0.98" stop-color="#405283"/></linearGradient><linearGradient id="linear-gradient-2" x1="424.12" y1="61.79" x2="539.32" y2="233.15" xlink:href="#linear-gradient"/></defs><path class="cls-1" d="M515.74,228h-34V152.25H514.9c1.2,0,8.74-.38,17.64,5.46a18.35,18.35,0,0,1,1.57,1.15,109.29,109.29,0,0,0-195.56-29.43v16.2h-9.09s-1.92,4.71-2.59,6.82l11.63,0V228H327.83l-.88,0a109.24,109.24,0,0,0,207.24-6.83C530.82,223.76,523.6,228,515.74,228Zm-106.2,0H389.77v-42.7c0-12.43-3.49-18.57-12.67-18.57-10.73,0-15.33,6.28-15.33,21.64V228H342V152.42h18.8V163h.42a25.37,25.37,0,0,1,22-12.57c21,0,26.32,12.42,26.32,31.15Zm36.68,2.05c-16.7,0-33-6.58-33.83-26.62h18.8c.14,9.06,7.38,12.13,15.18,12.13,5.71,0,12.95-1.75,12.95-9.06,0-6.17-7.74-6.81-21.51-10.49-11.34-3-23.75-8.08-23.75-21.39,0-19.3,15.88-24.27,31.33-24.27,15.74,0,30.22,5.55,31.75,24.12h-18.8c-.55-8-6.4-9.68-13.51-9.68-4.45,0-11,.87-11,7,0,6.57,11.43,7.6,22.71,10.38,11.56,2.78,22.55,7.5,22.55,21.55C479.09,223.64,462.66,230.08,446.22,230.08Z" transform="translate(-136.07 -80.88)"/><path class="cls-2" d="M520.87,173.18c-3.71-2.81-10.41-3.26-11.41-3.26h-8.15L501.13,210H511.9a14.94,14.94,0,0,0,8.61-2.45c5.07-3.53,5-6.6,6-10s.54-5.8.27-11.14S524.58,176,520.87,173.18Z" transform="translate(-136.07 -80.88)"/><path class="cls-3" d="M195.3,371.31V330.69h8.21v40.62Z" transform="translate(-136.07 -80.88)"/><path class="cls-3" d="M211.4,371.31V330.69h8L236,357.82V330.69h7.62v40.62H235.4L219,344.83v26.48Z" transform="translate(-136.07 -80.88)"/><path class="cls-3" d="M261.44,371.31V337.57H249.39v-6.88h32.28v6.88h-12v33.74Z" transform="translate(-136.07 -80.88)"/><path class="cls-3" d="M287,371.31V330.69h30.12v6.88H295.16v9h20.4v6.85h-20.4v11.05h22.7v6.84Z" transform="translate(-136.07 -80.88)"/><path class="cls-3" d="M324.84,371.31V330.69H342.1q6.51,0,9.46,1.1a9.39,9.39,0,0,1,4.73,3.89,11.73,11.73,0,0,1,1.77,6.4,10.84,10.84,0,0,1-2.69,7.55q-2.69,3-8,3.76a19.13,19.13,0,0,1,4.39,3.41,46.16,46.16,0,0,1,4.67,6.59l5,7.92h-9.81l-5.93-8.83a60.45,60.45,0,0,0-4.32-6,6.4,6.4,0,0,0-2.47-1.69,13.72,13.72,0,0,0-4.13-.45H333v16.95Zm8.2-23.44h6.07q5.89,0,7.37-.49a4.5,4.5,0,0,0,2.3-1.72,5.34,5.34,0,0,0,.83-3.05,4.86,4.86,0,0,0-1.1-3.31,5,5,0,0,0-3.09-1.59c-.66-.1-2.66-.14-6-.14H333Z" transform="translate(-136.07 -80.88)"/><path class="cls-3" d="M365.87,371.31V330.69h8l16.63,27.13V330.69h7.62v40.62h-8.23l-16.38-26.48v26.48Z" transform="translate(-136.07 -80.88)"/><path class="cls-3" d="M443.4,371.31h-8.92l-3.55-9.22H414.69l-3.35,9.22h-8.7l15.82-40.62h8.67Zm-15.1-16.07-5.6-15.07-5.48,15.07Z" transform="translate(-136.07 -80.88)"/><path class="cls-3" d="M452.68,371.31V337.57H440.63v-6.88h32.28v6.88h-12v33.74Z" transform="translate(-136.07 -80.88)"/><path class="cls-3" d="M478,371.31V330.69h8.2v40.62Z" transform="translate(-136.07 -80.88)"/><path class="cls-3" d="M492.3,351.25a25.75,25.75,0,0,1,1.86-10.41,18.93,18.93,0,0,1,3.78-5.57,15.72,15.72,0,0,1,5.25-3.66A22.33,22.33,0,0,1,512,330q9,0,14.36,5.57t5.39,15.49q0,9.84-5.34,15.39T512.06,372q-9.06,0-14.41-5.53T492.3,351.25Zm8.45-.27q0,6.9,3.19,10.46a10.95,10.95,0,0,0,16.14,0q3.15-3.52,3.14-10.59t-3.06-10.42a11.33,11.33,0,0,0-16.3,0Q500.76,344,500.75,351Z" transform="translate(-136.07 -80.88)"/><path class="cls-3" d="M538.19,371.31V330.69h8l16.62,27.13V330.69h7.62v40.62h-8.23l-16.37-26.48v26.48Z" transform="translate(-136.07 -80.88)"/><path class="cls-3" d="M615.71,371.31h-8.92l-3.54-9.22H587l-3.35,9.22H575l15.82-40.62h8.67Zm-15.1-16.07L595,340.17l-5.49,15.07Z" transform="translate(-136.07 -80.88)"/><path class="cls-3" d="M620.29,371.31V331h8.2v33.44h20.39v6.84Z" transform="translate(-136.07 -80.88)"/><path class="cls-3" d="M138.25,426.19l8-.77a9.73,9.73,0,0,0,2.93,5.9,8.82,8.82,0,0,0,5.94,1.88q4,0,6-1.67a5,5,0,0,0,2-3.92,3.7,3.7,0,0,0-.85-2.46,6.74,6.74,0,0,0-2.95-1.76q-1.44-.5-6.56-1.77-6.6-1.64-9.26-4a10.57,10.57,0,0,1-3.74-8.17,10.45,10.45,0,0,1,1.76-5.8,10.93,10.93,0,0,1,5.07-4.12,20.38,20.38,0,0,1,8-1.41q7.63,0,11.51,3.35a11.82,11.82,0,0,1,4.06,8.95l-8.2.36a7,7,0,0,0-2.26-4.5,8.26,8.26,0,0,0-5.2-1.37,9.4,9.4,0,0,0-5.59,1.46,3,3,0,0,0-1.31,2.53,3.11,3.11,0,0,0,1.22,2.46c1,.87,3.55,1.77,7.54,2.72a39.45,39.45,0,0,1,8.85,2.92,11.42,11.42,0,0,1,4.49,4.13,12.79,12.79,0,0,1-.32,13,11.63,11.63,0,0,1-5.48,4.53,23.22,23.22,0,0,1-8.84,1.48q-7.71,0-11.83-3.56T138.25,426.19Z" transform="translate(-136.07 -80.88)"/><path class="cls-3" d="M204.17,424.47l8,2.53q-1.83,6.64-6.08,9.87a19.13,19.13,0,0,1-24.09-2.3q-5.2-5.52-5.21-15.11,0-10.14,5.24-15.75t13.77-5.61q7.45,0,12.11,4.4A16.07,16.07,0,0,1,212,410l-8.12,1.94a8.38,8.38,0,0,0-8.56-6.81,9.26,9.26,0,0,0-7.33,3.24q-2.81,3.24-2.81,10.5,0,7.71,2.77,11a9,9,0,0,0,7.21,3.27,8.2,8.2,0,0,0,5.62-2.08A12,12,0,0,0,204.17,424.47Z" transform="translate(-136.07 -80.88)"/><path class="cls-3" d="M219.19,439.41V398.79h8.2v16h16.07v-16h8.2v40.62h-8.2V421.65H227.39v17.76Z" transform="translate(-136.07 -80.88)"/><path class="cls-3" d="M258.48,419.35a26,26,0,0,1,1.85-10.42,19.29,19.29,0,0,1,3.79-5.57,15.81,15.81,0,0,1,5.25-3.66,22.32,22.32,0,0,1,8.75-1.6q9,0,14.37,5.57t5.39,15.48q0,9.84-5.35,15.4t-14.3,5.55q-9.06,0-14.4-5.53T258.48,419.35Zm8.45-.28q0,6.9,3.19,10.46a10.95,10.95,0,0,0,16.13,0Q289.4,426,289.4,419t-3.06-10.42a10.35,10.35,0,0,0-8.13-3.43,10.46,10.46,0,0,0-8.18,3.47Q266.92,412.06,266.93,419.07Z" transform="translate(-136.07 -80.88)"/><path class="cls-3" d="M302.62,419.35a25.81,25.81,0,0,1,1.85-10.42,19.46,19.46,0,0,1,3.78-5.57,16,16,0,0,1,5.26-3.66,22.28,22.28,0,0,1,8.75-1.6q9,0,14.37,5.57T342,419.15q0,9.84-5.35,15.4t-14.3,5.55q-9.06,0-14.41-5.53T302.62,419.35Zm8.45-.28q0,6.9,3.18,10.46a11,11,0,0,0,16.14,0q3.15-3.54,3.15-10.6t-3.06-10.42a11.36,11.36,0,0,0-16.31,0Q311.07,412.06,311.07,419.07Z" transform="translate(-136.07 -80.88)"/><path class="cls-3" d="M348.64,439.41V399.12h8.2v33.45h20.39v6.84Z" transform="translate(-136.07 -80.88)"/><path class="cls-3" d="M396.16,419.35A26,26,0,0,1,398,408.93a19.29,19.29,0,0,1,3.79-5.57,15.81,15.81,0,0,1,5.25-3.66,22.32,22.32,0,0,1,8.75-1.6q9,0,14.37,5.57t5.39,15.48q0,9.84-5.35,15.4t-14.3,5.55q-9.06,0-14.4-5.53T396.16,419.35Zm8.45-.28q0,6.9,3.19,10.46a10.95,10.95,0,0,0,16.13,0q3.15-3.54,3.15-10.6T424,408.54a10.35,10.35,0,0,0-8.13-3.43,10.46,10.46,0,0,0-8.18,3.47Q404.61,412.06,404.61,419.07Z" transform="translate(-136.07 -80.88)"/><path class="cls-3" d="M442,439.41V398.79h27.85v6.87H450.22v9.62h16.95v6.87H450.22v17.26Z" transform="translate(-136.07 -80.88)"/><path class="cls-3" d="M492.36,398.79h15a29.1,29.1,0,0,1,7.73.78,13.5,13.5,0,0,1,6.12,3.74,17.6,17.6,0,0,1,3.88,6.58,29.84,29.84,0,0,1,1.33,9.6,26.72,26.72,0,0,1-1.24,8.64,17.9,17.9,0,0,1-4.36,7.18,14.5,14.5,0,0,1-5.76,3.24,24.9,24.9,0,0,1-7.26.86H492.36Zm8.2,6.87v26.91h6.12a22.2,22.2,0,0,0,5-.39,7.65,7.65,0,0,0,3.31-1.69,8.56,8.56,0,0,0,2.15-3.92,26.3,26.3,0,0,0,.83-7.44,24.06,24.06,0,0,0-.83-7.23,9.18,9.18,0,0,0-2.33-3.94,7.76,7.76,0,0,0-3.79-1.91,37,37,0,0,0-6.73-.39Z" transform="translate(-136.07 -80.88)"/><path class="cls-3" d="M533.37,439.41V398.79h30.11v6.87H541.57v9H562v6.84H541.57v11.06h22.69v6.84Z" transform="translate(-136.07 -80.88)"/><path class="cls-3" d="M569.14,426.19l8-.77a9.73,9.73,0,0,0,2.92,5.9A8.82,8.82,0,0,0,586,433.2q4,0,6-1.67a5,5,0,0,0,2-3.92,3.74,3.74,0,0,0-.84-2.46,6.87,6.87,0,0,0-3-1.76q-1.44-.5-6.57-1.77-6.6-1.64-9.25-4a10.64,10.64,0,0,1-2-14,11,11,0,0,1,5.07-4.12,20.41,20.41,0,0,1,8-1.41q7.65,0,11.51,3.35A11.82,11.82,0,0,1,601,410.4l-8.2.36a7,7,0,0,0-2.26-4.5,8.22,8.22,0,0,0-5.19-1.37,9.43,9.43,0,0,0-5.6,1.46,3,3,0,0,0-1.3,2.53,3.08,3.08,0,0,0,1.22,2.46c1,.87,3.54,1.77,7.53,2.72a39.45,39.45,0,0,1,8.85,2.92,11.35,11.35,0,0,1,4.49,4.13,12.06,12.06,0,0,1,1.62,6.47,11.92,11.92,0,0,1-1.94,6.54,11.63,11.63,0,0,1-5.48,4.53,23.19,23.19,0,0,1-8.84,1.48q-7.71,0-11.83-3.56T569.14,426.19Z" transform="translate(-136.07 -80.88)"/><path class="cls-3" d="M608.81,439.41V398.79H617v40.62Z" transform="translate(-136.07 -80.88)"/><path class="cls-3" d="M643.73,424.47v-6.84H661.4v16.18a22.09,22.09,0,0,1-7.46,4.39,27.16,27.16,0,0,1-9.91,1.9,22.25,22.25,0,0,1-11.11-2.67,17,17,0,0,1-7.12-7.65A24.7,24.7,0,0,1,623.42,419a23.32,23.32,0,0,1,2.66-11.28,17.93,17.93,0,0,1,7.78-7.56,21,21,0,0,1,9.73-2q7.56,0,11.81,3.17a14.34,14.34,0,0,1,5.48,8.77l-8.15,1.52a8.58,8.58,0,0,0-3.23-4.72,9.71,9.71,0,0,0-5.91-1.73,11.1,11.1,0,0,0-8.55,3.4q-3.18,3.42-3.17,10.12,0,7.23,3.21,10.85a10.72,10.72,0,0,0,8.42,3.61,14.23,14.23,0,0,0,5.17-1,17.6,17.6,0,0,0,4.45-2.45v-5.16Z" transform="translate(-136.07 -80.88)"/><path class="cls-3" d="M669.05,439.41V398.79h8l16.63,27.13V398.79h7.61v40.62h-8.22l-16.38-26.49v26.49Z" transform="translate(-136.07 -80.88)"/><path class="cls-4" d="M136.22,500.32V473.61h5.25l10.93,17.84V473.61h5v26.71H152l-10.77-17.41v17.41Z" transform="translate(-136.07 -80.88)"/><path class="cls-4" d="M163.08,473.61h5.39v14.47a28.55,28.55,0,0,0,.21,4.46,4.37,4.37,0,0,0,1.64,2.64,5.78,5.78,0,0,0,3.57,1,5.41,5.41,0,0,0,3.46-.94,3.68,3.68,0,0,0,1.4-2.3,29.73,29.73,0,0,0,.24-4.54V473.61h5.39v14a35.26,35.26,0,0,1-.44,6.8,7.44,7.44,0,0,1-1.61,3.35,8.13,8.13,0,0,1-3.14,2.18,13.7,13.7,0,0,1-5.14.81,14.75,14.75,0,0,1-5.8-.88,8.37,8.37,0,0,1-3.13-2.3,7.39,7.39,0,0,1-1.51-3,32.58,32.58,0,0,1-.53-6.78Z" transform="translate(-136.07 -80.88)"/><path class="cls-4" d="M190.09,500.32V473.61h11.35a19.41,19.41,0,0,1,6.22.72,6.21,6.21,0,0,1,3.11,2.56,7.76,7.76,0,0,1,1.16,4.21,7.17,7.17,0,0,1-1.76,5,8.53,8.53,0,0,1-5.29,2.47,12.36,12.36,0,0,1,2.89,2.24,30.62,30.62,0,0,1,3.07,4.33l3.26,5.21h-6.45l-3.9-5.81a38.07,38.07,0,0,0-2.84-3.93,4.14,4.14,0,0,0-1.62-1.11,8.94,8.94,0,0,0-2.72-.3h-1.09v11.15Zm5.39-15.41h4a20.54,20.54,0,0,0,4.85-.33,2.91,2.91,0,0,0,1.51-1.13,3.49,3.49,0,0,0,.55-2,3.25,3.25,0,0,0-.72-2.18,3.35,3.35,0,0,0-2-1c-.43-.06-1.75-.09-3.93-.09h-4.21Z" transform="translate(-136.07 -80.88)"/><path class="cls-4" d="M223,500.32V478.13H215.1v-4.52h21.23v4.52h-7.91v22.19Z" transform="translate(-136.07 -80.88)"/><path class="cls-4" d="M239.77,473.61h5.4v14.47a29,29,0,0,0,.2,4.46,4.34,4.34,0,0,0,1.65,2.64,5.75,5.75,0,0,0,3.56,1,5.41,5.41,0,0,0,3.46-.94,3.64,3.64,0,0,0,1.4-2.3,29.73,29.73,0,0,0,.24-4.54V473.61h5.39v14a36.35,36.35,0,0,1-.43,6.8,7.45,7.45,0,0,1-1.62,3.35,8.13,8.13,0,0,1-3.14,2.18,13.67,13.67,0,0,1-5.14.81,14.78,14.78,0,0,1-5.8-.88,8.37,8.37,0,0,1-3.13-2.3,7.52,7.52,0,0,1-1.51-3,32.58,32.58,0,0,1-.53-6.78Z" transform="translate(-136.07 -80.88)"/><path class="cls-4" d="M266.78,500.32V473.61h11.35a19.41,19.41,0,0,1,6.22.72,6.17,6.17,0,0,1,3.11,2.56,7.68,7.68,0,0,1,1.16,4.21,7.13,7.13,0,0,1-1.76,5,8.53,8.53,0,0,1-5.29,2.47,12.36,12.36,0,0,1,2.89,2.24,30.62,30.62,0,0,1,3.07,4.33l3.26,5.21h-6.45l-3.9-5.81a38.07,38.07,0,0,0-2.84-3.93,4.14,4.14,0,0,0-1.62-1.11,8.94,8.94,0,0,0-2.72-.3h-1.09v11.15Zm5.39-15.41h4a20.54,20.54,0,0,0,4.85-.33,2.88,2.88,0,0,0,1.51-1.13,3.42,3.42,0,0,0,.55-2,3.2,3.2,0,0,0-.72-2.18,3.35,3.35,0,0,0-2-1c-.44-.06-1.75-.09-3.94-.09h-4.21Z" transform="translate(-136.07 -80.88)"/><path class="cls-4" d="M293.54,500.32V473.61h5.4v26.71Z" transform="translate(-136.07 -80.88)"/><path class="cls-4" d="M304.13,500.32V473.61h5.25l10.93,17.84V473.61h5v26.71h-5.41l-10.77-17.41v17.41Z" transform="translate(-136.07 -80.88)"/><path class="cls-4" d="M343.45,490.5V486h11.63v10.64a14.53,14.53,0,0,1-4.91,2.89,18,18,0,0,1-6.52,1.25,14.61,14.61,0,0,1-7.3-1.76,11.2,11.2,0,0,1-4.69-5,16.3,16.3,0,0,1-1.56-7.11,15.46,15.46,0,0,1,1.74-7.42,11.82,11.82,0,0,1,5.12-5,13.82,13.82,0,0,1,6.4-1.33q5,0,7.77,2.08a9.39,9.39,0,0,1,3.6,5.77l-5.36,1a5.61,5.61,0,0,0-2.12-3.1,6.4,6.4,0,0,0-3.89-1.14,7.28,7.28,0,0,0-5.62,2.24q-2.08,2.24-2.09,6.65,0,4.75,2.12,7.13a7,7,0,0,0,5.54,2.38,9.1,9.1,0,0,0,3.39-.67,11.66,11.66,0,0,0,2.93-1.61V490.5Z" transform="translate(-136.07 -80.88)"/><path class="cls-4" d="M387.51,490.5l5.23,1.66a11.76,11.76,0,0,1-4,6.5,12.58,12.58,0,0,1-15.84-1.52q-3.43-3.63-3.43-9.93,0-6.68,3.45-10.36a11.79,11.79,0,0,1,9.05-3.69,11.1,11.1,0,0,1,8,2.89,10.6,10.6,0,0,1,2.74,4.92l-5.34,1.28a5.52,5.52,0,0,0-5.63-4.48,6.08,6.08,0,0,0-4.82,2.13Q375,482,375,486.8q0,5.07,1.82,7.22a5.94,5.94,0,0,0,4.74,2.15,5.43,5.43,0,0,0,3.7-1.37A7.94,7.94,0,0,0,387.51,490.5Z" transform="translate(-136.07 -80.88)"/><path class="cls-4" d="M397.39,500.32V473.61h11.35a19.41,19.41,0,0,1,6.22.72,6.21,6.21,0,0,1,3.11,2.56,7.76,7.76,0,0,1,1.16,4.21,7.17,7.17,0,0,1-1.76,5,8.53,8.53,0,0,1-5.29,2.47,12.36,12.36,0,0,1,2.89,2.24,30.62,30.62,0,0,1,3.07,4.33l3.26,5.21H415l-3.9-5.81a38.07,38.07,0,0,0-2.84-3.93,4.14,4.14,0,0,0-1.62-1.11,8.94,8.94,0,0,0-2.72-.3h-1.09v11.15Zm5.39-15.41h4a20.54,20.54,0,0,0,4.85-.33,2.91,2.91,0,0,0,1.51-1.13,3.49,3.49,0,0,0,.55-2,3.2,3.2,0,0,0-.72-2.18,3.35,3.35,0,0,0-2-1c-.43-.06-1.75-.09-3.93-.09h-4.21Z" transform="translate(-136.07 -80.88)"/><path class="cls-4" d="M424.32,500.32V473.61h19.8v4.52H429.71v5.92h13.41v4.5H429.71v7.27h14.92v4.5Z" transform="translate(-136.07 -80.88)"/><path class="cls-4" d="M473.29,500.32h-5.86l-2.33-6.06H454.42l-2.21,6.06h-5.72l10.41-26.71h5.7Zm-9.92-10.56-3.69-9.92-3.6,9.92Z" transform="translate(-136.07 -80.88)"/><path class="cls-4" d="M479.4,500.32V478.13h-7.93v-4.52H492.7v4.52h-7.91v22.19Z" transform="translate(-136.07 -80.88)"/><path class="cls-4" d="M496,500.32V473.61h5.39v26.71Z" transform="translate(-136.07 -80.88)"/><path class="cls-4" d="M513.36,500.32l-9.54-26.71h5.85l6.76,19.77L523,473.61h5.72l-9.57,26.71Z" transform="translate(-136.07 -80.88)"/><path class="cls-4" d="M531.44,500.32V473.61h19.81v4.52H536.83v5.92h13.41v4.5H536.83v7.27h14.93v4.5Z" transform="translate(-136.07 -80.88)"/><path class="cls-4" d="M572.71,500.32V478.13h-7.93v-4.52H586v4.52H578.1v22.19Z" transform="translate(-136.07 -80.88)"/><path class="cls-4" d="M610.81,500.32h-5.87l-2.33-6.06H591.93l-2.2,6.06H584l10.4-26.71h5.71Zm-9.93-10.56-3.68-9.92-3.61,9.92Z" transform="translate(-136.07 -80.88)"/><path class="cls-4" d="M613.82,500.32V473.83h5.39v22h13.41v4.5Z" transform="translate(-136.07 -80.88)"/><path class="cls-4" d="M636.47,500.32V473.61h19.8v4.52H641.86v5.92h13.41v4.5H641.86v7.27h14.92v4.5Z" transform="translate(-136.07 -80.88)"/><path class="cls-4" d="M661.41,500.32V473.61h5.25l10.93,17.84V473.61h5v26.71h-5.41l-10.77-17.41v17.41Z" transform="translate(-136.07 -80.88)"/><path class="cls-4" d="M694.32,500.32V478.13h-7.93v-4.52h21.23v4.52h-7.91v22.19Z" transform="translate(-136.07 -80.88)"/><rect class="cls-4" y="373.73" width="567.53" height="2"/></svg>